<svg width="150" height="202" viewBox="0 0 150 202" fill="none" xmlns="http://www.w3.org/2000/svg">
<ellipse cx="75" cy="192" rx="35" ry="10" fill="#515151"/>
<path d="M17.2147 36.712C18.822 27.0683 27.1658 20 36.9425 20H113.057C122.834 20 131.178 27.0683 132.785 36.712L142.237 93.424C146.301 117.805 127.499 140 102.782 140H47.2184C22.5008 140 3.69911 117.805 7.76266 93.424L17.2147 36.712Z" fill="#2A8CFF"/>
<mask id="mask0_523_811" style="mask-type:luminance" maskUnits="userSpaceOnUse" x="7" y="20" width="136" height="120">
<path d="M17.2147 36.712C18.822 27.0683 27.1658 20 36.9425 20H113.057C122.834 20 131.178 27.0683 132.785 36.712L142.237 93.424C146.301 117.805 127.499 140 102.782 140H47.2184C22.5008 140 3.69911 117.805 7.76266 93.424L17.2147 36.712Z" fill="white"/>
</mask>
<g mask="url(#mask0_523_811)">
<path d="M17.2147 36.712C18.822 27.0683 27.1658 20 36.9425 20H113.057C122.834 20 131.178 27.0683 132.785 36.712L142.237 93.424C146.301 117.805 127.499 140 102.782 140H47.2184C22.5008 140 3.69911 117.805 7.76266 93.424L17.2147 36.712Z" fill="#2A8CFF"/>
<path d="M28.0375 43.7373C29.1636 35.8549 35.9143 30 43.8767 30H106.123C114.086 30 120.836 35.8549 121.962 43.7373L127.391 81.7373C128.768 91.3762 121.289 100 111.552 100H38.4482C28.7114 100 21.232 91.3762 22.609 81.7373L28.0375 43.7373Z" fill="#1D62B3"/>
<path d="M50 84C50 81.7909 51.7909 80 54 80H96C98.2091 80 100 81.7909 100 84V136C100 138.209 98.2091 140 96 140H54C51.7909 140 50 138.209 50 136V84Z" fill="#FF9F45"/>
<path d="M60 79C60 76.7909 61.7909 75 64 75H86C88.2091 75 90 76.7909 90 79V81C90 83.2091 88.2091 85 86 85H64C61.7909 85 60 83.2091 60 81V79Z" fill="#9C612A"/>
<path d="M114.048 73.8794C114.426 72.8414 115.574 72.3063 116.612 72.684L122.25 74.7362C123.288 75.1139 123.823 76.2616 123.445 77.2996L110.696 112.327C110.536 112.767 110.227 113.137 109.823 113.372L105.772 115.729C104.693 116.357 103.308 115.853 102.885 114.678L101.297 110.269C101.138 109.829 101.139 109.347 101.299 108.907L114.048 73.8794Z" fill="#FFD8B3"/>
<path d="M112.339 78.5781L121.736 81.9983L111.475 110.189L106.777 108.479L102.078 106.769L112.339 78.5781Z" fill="#FF9F45"/>
<path d="M114.048 73.8794C114.426 72.8414 115.574 72.3063 116.612 72.684L122.25 74.7362C123.288 75.1139 123.823 76.2616 123.445 77.2996L120.709 84.8171L111.312 81.3969L114.048 73.8794Z" fill="#FF8484"/>
<rect x="112.339" y="78.5781" width="10" height="3" transform="rotate(20 112.339 78.5781)" fill="#9C4141"/>
<path d="M102.885 114.678L102.375 113.262L107.073 114.972L105.773 115.729C104.693 116.357 103.308 115.853 102.885 114.678Z" fill="#2D2D2D"/>
<path d="M42.4909 101.589L7 59V109L34.7762 114.555C42.1762 116.035 47.3221 107.387 42.4909 101.589Z" fill="#1D62B3"/>
<path d="M107.509 101.589L143 59V109L115.224 114.555C107.824 116.035 102.678 107.387 107.509 101.589Z" fill="#1D62B3"/>
</g>
<path d="M91.3167 4.34165L60 20H100V9.7082C100 5.24791 95.3061 2.34694 91.3167 4.34165Z" fill="#2A8CFF"/>
<path d="M11.8092 134.74C14.6425 126.955 23.2502 122.941 31.0348 125.775L59.2256 136.035C67.0103 138.869 71.0241 147.476 68.1907 155.261V155.261C65.3573 163.046 56.7497 167.06 48.965 164.226L20.7742 153.966C12.9896 151.132 8.97576 142.525 11.8092 134.74V134.74Z" fill="#00C897"/>
<path d="M81.809 155.261C78.9756 147.477 82.9894 138.869 90.7741 136.036L118.965 125.775C126.75 122.942 135.357 126.956 138.191 134.74V134.74C141.024 142.525 137.01 151.133 129.225 153.966L101.035 164.226C93.25 167.06 84.6424 163.046 81.809 155.261V155.261Z" fill="#00C897"/>
<circle cx="50" cy="60" r="10" fill="#F5F5F5"/>
<path d="M80 65C80 65.6566 79.8707 66.3068 79.6194 66.9134C79.3681 67.52 78.9998 68.0712 78.5355 68.5355C78.0712 68.9998 77.52 69.3681 76.9134 69.6194C76.3068 69.8707 75.6566 70 75 70C74.3434 70 73.6932 69.8707 73.0866 69.6194C72.48 69.3681 71.9288 68.9998 71.4645 68.5355C71.0002 68.0712 70.6319 67.52 70.3806 66.9134C70.1293 66.3068 70 65.6566 70 65L75 65H80Z" fill="#F5F5F5"/>
<circle cx="100" cy="60" r="10" fill="#F5F5F5"/>
</svg>
