<svg width="210" height="202" viewBox="0 0 210 202" fill="none" xmlns="http://www.w3.org/2000/svg">
<ellipse cx="105" cy="192" rx="35" ry="10" fill="#515151"/>
<path d="M14.5091 77.4109L50 120V70L22.2238 64.4448C14.8238 62.9648 9.67789 71.6135 14.5091 77.4109Z" fill="#1D62B3"/>
<path d="M195.491 77.4109L160 120V70L187.776 64.4448C195.176 62.9648 200.322 71.6135 195.491 77.4109Z" fill="#1D62B3"/>
<path d="M47.2147 36.712C48.822 27.0683 57.1658 20 66.9425 20H143.057C152.834 20 161.178 27.0683 162.785 36.712L172.237 93.424C176.301 117.805 157.499 140 132.782 140H77.2184C52.5008 140 33.6991 117.805 37.7627 93.424L47.2147 36.712Z" fill="#2A8CFF"/>
<path d="M58.0375 43.7373C59.1636 35.8549 65.9143 30 73.8767 30H136.123C144.086 30 150.836 35.8549 151.962 43.7373L157.391 81.7373C158.768 91.3762 151.289 100 141.552 100H68.4482C58.7114 100 51.232 91.3762 52.609 81.7373L58.0375 43.7373Z" fill="#1D62B3"/>
<path d="M121.317 4.34165L90 20H130V9.7082C130 5.24791 125.306 2.34694 121.317 4.34165Z" fill="#2A8CFF"/>
<path d="M90 60C90 58.6868 89.7413 57.3864 89.2388 56.1732C88.7362 54.9599 87.9997 53.8575 87.0711 52.9289C86.1425 52.0003 85.0401 51.2638 83.8268 50.7612C82.6136 50.2587 81.3132 50 80 50C78.6868 50 77.3864 50.2587 76.1732 50.7612C74.9599 51.2638 73.8575 52.0003 72.9289 52.9289C72.0003 53.8575 71.2638 54.9599 70.7612 56.1732C70.2587 57.3864 70 58.6868 70 60L80 60H90Z" fill="#F5F5F5"/>
<path d="M41.8092 134.74C44.6425 126.955 53.2502 122.941 61.0348 125.775L89.2256 136.035C97.0103 138.869 101.024 147.476 98.1907 155.261C95.3573 163.046 86.7497 167.06 78.965 164.226L50.7742 153.966C42.9896 151.132 38.9758 142.525 41.8092 134.74Z" fill="#00C897"/>
<path d="M111.809 155.261C108.976 147.477 112.989 138.869 120.774 136.036L148.965 125.775C156.75 122.942 165.357 126.956 168.191 134.74C171.024 142.525 167.01 151.132 159.225 153.966L131.035 164.226C123.25 167.06 114.642 163.046 111.809 155.261Z" fill="#00C897"/>
<path d="M110 65C110 65.6566 109.871 66.3068 109.619 66.9134C109.368 67.52 109 68.0712 108.536 68.5355C108.071 68.9998 107.52 69.3681 106.913 69.6194C106.307 69.8707 105.657 70 105 70C104.343 70 103.693 69.8707 103.087 69.6194C102.48 69.3681 101.929 68.9998 101.464 68.5355C101 68.0712 100.632 67.52 100.381 66.9134C100.129 66.3068 100 65.6566 100 65L105 65H110Z" fill="#F5F5F5"/>
<path d="M140 60C140 57.3478 138.946 54.8043 137.071 52.9289C135.196 51.0536 132.652 50 130 50C127.348 50 124.804 51.0536 122.929 52.9289C121.054 54.8043 120 57.3478 120 60L130 60H140Z" fill="#F5F5F5"/>
</svg>
