<svg width="339" height="155" viewBox="0 0 339 155" fill="none" xmlns="http://www.w3.org/2000/svg">
<path d="M111.215 36.712C112.822 27.0683 121.166 20 130.943 20H207.057C216.834 20 225.178 27.0683 226.785 36.712L236.237 93.424C240.301 117.805 221.499 140 196.782 140H141.218C116.501 140 97.6991 117.805 101.763 93.424L111.215 36.712Z" fill="#2A8CFF"/>
<path d="M122.038 43.7373C123.164 35.8549 129.914 30 137.877 30H200.123C208.086 30 214.836 35.8549 215.962 43.7373L221.391 81.7373C222.768 91.3762 215.289 100 205.552 100H132.448C122.711 100 115.232 91.3762 116.609 81.7373L122.038 43.7373Z" fill="#1D62B3"/>
<path d="M185.317 4.34165L154 20H194V9.7082C194 5.24791 189.306 2.34694 185.317 4.34165Z" fill="#2A8CFF"/>
<circle cx="144" cy="60" r="10" fill="#F5F5F5"/>
<path d="M174 65C174 65.6566 173.871 66.3068 173.619 66.9134C173.368 67.52 173 68.0712 172.536 68.5355C172.071 68.9998 171.52 69.3681 170.913 69.6194C170.307 69.8707 169.657 70 169 70C168.343 70 167.693 69.8707 167.087 69.6194C166.48 69.3681 165.929 68.9998 165.464 68.5355C165 68.0712 164.632 67.52 164.381 66.9134C164.129 66.3068 164 65.6566 164 65L169 65H174Z" fill="#F5F5F5"/>
<circle cx="194" cy="60" r="10" fill="#F5F5F5"/>
<path d="M111.819 140.44C110.139 140.44 108.645 140.027 107.339 139.2C106.059 138.373 105.045 137.187 104.299 135.64C103.579 134.093 103.219 132.267 103.219 130.16C103.219 128 103.579 126.16 104.299 124.64C105.045 123.12 106.059 121.947 107.339 121.12C108.645 120.293 110.139 119.88 111.819 119.88C113.285 119.88 114.605 120.227 115.779 120.92C116.952 121.613 117.739 122.507 118.139 123.6H117.699V115.04C117.699 113.867 118.005 112.973 118.619 112.36C119.232 111.747 120.112 111.44 121.259 111.44C122.379 111.44 123.245 111.747 123.859 112.36C124.499 112.973 124.819 113.867 124.819 115.04V136.76C124.819 137.933 124.512 138.827 123.899 139.44C123.312 140.053 122.445 140.36 121.299 140.36C120.179 140.36 119.312 140.053 118.699 139.44C118.085 138.827 117.779 137.933 117.779 136.76V134.48L118.219 136.44C117.845 137.64 117.059 138.613 115.859 139.36C114.685 140.08 113.339 140.44 111.819 140.44ZM114.099 135.2C114.819 135.2 115.459 135.027 116.019 134.68C116.579 134.307 117.005 133.76 117.299 133.04C117.619 132.293 117.779 131.333 117.779 130.16C117.779 128.373 117.432 127.093 116.739 126.32C116.045 125.52 115.165 125.12 114.099 125.12C113.379 125.12 112.739 125.293 112.179 125.64C111.619 125.987 111.179 126.533 110.859 127.28C110.539 128 110.379 128.96 110.379 130.16C110.379 131.92 110.725 133.2 111.419 134C112.112 134.8 113.005 135.2 114.099 135.2ZM139.663 140.44C137.263 140.44 135.183 140.027 133.423 139.2C131.69 138.347 130.357 137.147 129.423 135.6C128.49 134.053 128.023 132.227 128.023 130.12C128.023 128.093 128.463 126.32 129.343 124.8C130.25 123.253 131.477 122.053 133.023 121.2C134.597 120.32 136.383 119.88 138.383 119.88C139.85 119.88 141.183 120.12 142.383 120.6C143.583 121.053 144.61 121.733 145.463 122.64C146.317 123.52 146.957 124.587 147.383 125.84C147.837 127.093 148.063 128.493 148.063 130.04C148.063 130.573 147.917 130.973 147.623 131.24C147.33 131.48 146.863 131.6 146.223 131.6H133.983V128.24H142.863L142.223 128.76C142.223 127.773 142.09 126.973 141.823 126.36C141.557 125.747 141.157 125.28 140.623 124.96C140.117 124.64 139.477 124.48 138.703 124.48C137.877 124.48 137.157 124.68 136.543 125.08C135.957 125.453 135.503 126.013 135.183 126.76C134.863 127.507 134.703 128.44 134.703 129.56V129.92C134.703 131.813 135.117 133.173 135.943 134C136.797 134.8 138.103 135.2 139.863 135.2C140.45 135.2 141.117 135.133 141.863 135C142.637 134.84 143.37 134.627 144.063 134.36C144.757 134.093 145.357 134.053 145.863 134.24C146.37 134.4 146.757 134.693 147.023 135.12C147.317 135.52 147.477 135.987 147.503 136.52C147.53 137.027 147.41 137.533 147.143 138.04C146.877 138.52 146.437 138.893 145.823 139.16C144.89 139.587 143.89 139.907 142.823 140.12C141.783 140.333 140.73 140.44 139.663 140.44ZM159.499 140.36C158.566 140.36 157.766 140.133 157.099 139.68C156.459 139.2 155.926 138.493 155.499 137.56L149.779 124.48C149.459 123.68 149.353 122.933 149.459 122.24C149.566 121.547 149.899 121 150.459 120.6C151.046 120.173 151.846 119.96 152.859 119.96C153.713 119.96 154.393 120.16 154.899 120.56C155.433 120.933 155.913 121.68 156.339 122.8L160.379 133.2H159.019L163.259 122.76C163.686 121.667 164.166 120.933 164.699 120.56C165.233 120.16 165.966 119.96 166.899 119.96C167.699 119.96 168.339 120.173 168.819 120.6C169.326 121 169.633 121.547 169.739 122.24C169.846 122.933 169.713 123.68 169.339 124.48L163.499 137.6C163.099 138.533 162.566 139.227 161.899 139.68C161.259 140.133 160.459 140.36 159.499 140.36ZM182.671 140.44C180.271 140.44 178.191 140.027 176.431 139.2C174.698 138.347 173.364 137.147 172.431 135.6C171.498 134.053 171.031 132.227 171.031 130.12C171.031 128.093 171.471 126.32 172.351 124.8C173.258 123.253 174.484 122.053 176.031 121.2C177.604 120.32 179.391 119.88 181.391 119.88C182.858 119.88 184.191 120.12 185.391 120.6C186.591 121.053 187.618 121.733 188.471 122.64C189.324 123.52 189.964 124.587 190.391 125.84C190.844 127.093 191.071 128.493 191.071 130.04C191.071 130.573 190.924 130.973 190.631 131.24C190.338 131.48 189.871 131.6 189.231 131.6H176.991V128.24H185.871L185.231 128.76C185.231 127.773 185.098 126.973 184.831 126.36C184.564 125.747 184.164 125.28 183.631 124.96C183.124 124.64 182.484 124.48 181.711 124.48C180.884 124.48 180.164 124.68 179.551 125.08C178.964 125.453 178.511 126.013 178.191 126.76C177.871 127.507 177.711 128.44 177.711 129.56V129.92C177.711 131.813 178.124 133.173 178.951 134C179.804 134.8 181.111 135.2 182.871 135.2C183.458 135.2 184.124 135.133 184.871 135C185.644 134.84 186.378 134.627 187.071 134.36C187.764 134.093 188.364 134.053 188.871 134.24C189.378 134.4 189.764 134.693 190.031 135.12C190.324 135.52 190.484 135.987 190.511 136.52C190.538 137.027 190.418 137.533 190.151 138.04C189.884 138.52 189.444 138.893 188.831 139.16C187.898 139.587 186.898 139.907 185.831 140.12C184.791 140.333 183.738 140.44 182.671 140.44ZM202.507 140.36C201.574 140.36 200.774 140.133 200.107 139.68C199.467 139.2 198.934 138.493 198.507 137.56L192.787 124.48C192.467 123.68 192.36 122.933 192.467 122.24C192.574 121.547 192.907 121 193.467 120.6C194.054 120.173 194.854 119.96 195.867 119.96C196.72 119.96 197.4 120.16 197.907 120.56C198.44 120.933 198.92 121.68 199.347 122.8L203.387 133.2H202.027L206.267 122.76C206.694 121.667 207.174 120.933 207.707 120.56C208.24 120.16 208.974 119.96 209.907 119.96C210.707 119.96 211.347 120.173 211.827 120.6C212.334 121 212.64 121.547 212.747 122.24C212.854 122.933 212.72 123.68 212.347 124.48L206.507 137.6C206.107 138.533 205.574 139.227 204.907 139.68C204.267 140.133 203.467 140.36 202.507 140.36ZM224.919 140.44C222.732 140.44 220.826 140.027 219.199 139.2C217.572 138.373 216.306 137.187 215.399 135.64C214.492 134.093 214.039 132.267 214.039 130.16C214.039 128.56 214.292 127.133 214.799 125.88C215.306 124.6 216.039 123.52 216.999 122.64C217.959 121.733 219.106 121.053 220.439 120.6C221.772 120.12 223.266 119.88 224.919 119.88C227.106 119.88 229.012 120.293 230.639 121.12C232.266 121.947 233.519 123.133 234.399 124.68C235.306 126.2 235.759 128.027 235.759 130.16C235.759 131.733 235.506 133.16 234.999 134.44C234.492 135.72 233.759 136.813 232.799 137.72C231.866 138.6 230.719 139.28 229.359 139.76C228.026 140.213 226.546 140.44 224.919 140.44ZM224.919 135.2C225.639 135.2 226.279 135.027 226.839 134.68C227.399 134.307 227.826 133.76 228.119 133.04C228.439 132.293 228.599 131.333 228.599 130.16C228.599 128.373 228.252 127.093 227.559 126.32C226.866 125.52 225.986 125.12 224.919 125.12C224.199 125.12 223.559 125.293 222.999 125.64C222.439 125.987 221.999 126.533 221.679 127.28C221.359 128 221.199 128.96 221.199 130.16C221.199 131.92 221.546 133.2 222.239 134C222.932 134.8 223.826 135.2 224.919 135.2Z" fill="#F5F5F5"/>
</svg>
