<svg width="210" height="202" viewBox="0 0 210 202" fill="none" xmlns="http://www.w3.org/2000/svg">
<path d="M14.5091 102.589L50 60V110L22.2238 115.555C14.8238 117.035 9.67789 108.387 14.5091 102.589Z" fill="#1D62B3"/>
<path d="M195.491 77.4109L160 120V70L187.776 64.4448C195.176 62.9648 200.322 71.6135 195.491 77.4109Z" fill="#1D62B3"/>
<path d="M47.2147 36.712C48.822 27.0683 57.1658 20 66.9425 20H143.057C152.834 20 161.178 27.0683 162.785 36.712L172.237 93.424C176.301 117.805 157.499 140 132.782 140H77.2184C52.5008 140 33.6991 117.805 37.7627 93.424L47.2147 36.712Z" fill="#2A8CFF"/>
<path d="M58.0375 43.7373C59.1636 35.8549 65.9143 30 73.8767 30H136.123C144.086 30 150.836 35.8549 151.962 43.7373L157.391 81.7373C158.768 91.3762 151.289 100 141.552 100H68.4482C58.7114 100 51.232 91.3762 52.609 81.7373L58.0375 43.7373Z" fill="#1D62B3"/>
<path d="M121.317 4.34165L90 20H130V9.7082C130 5.24791 125.306 2.34694 121.317 4.34165Z" fill="#2A8CFF"/>
<path d="M41.8092 134.74C44.6425 126.955 53.2502 122.941 61.0348 125.775L89.2256 136.035C97.0103 138.869 101.024 147.476 98.1907 155.261C95.3573 163.046 86.7497 167.06 78.965 164.226L50.7742 153.966C42.9896 151.132 38.9758 142.525 41.8092 134.74Z" fill="#00C897"/>
<path d="M111.809 155.261C108.976 147.477 112.989 138.869 120.774 136.036L148.965 125.775C156.75 122.942 165.357 126.956 168.191 134.74C171.024 142.525 167.01 151.133 159.225 153.966L131.035 164.226C123.25 167.06 114.642 163.046 111.809 155.261Z" fill="#00C897"/>
<circle cx="80" cy="60" r="10" fill="#F5F5F5"/>
<path d="M110 65C110 65.6566 109.871 66.3068 109.619 66.9134C109.368 67.52 109 68.0712 108.536 68.5355C108.071 68.9998 107.52 69.3681 106.913 69.6194C106.307 69.8707 105.657 70 105 70C104.343 70 103.693 69.8707 103.087 69.6194C102.48 69.3681 101.929 68.9998 101.464 68.5355C101 68.0712 100.632 67.52 100.381 66.9134C100.129 66.3068 100 65.6566 100 65L105 65H110Z" fill="#F5F5F5"/>
<circle cx="130" cy="60" r="10" fill="#F5F5F5"/>
<ellipse cx="105" cy="192" rx="35" ry="10" fill="#515151"/>
</svg>
